<?xml version="1.0" encoding="iso-8859-1"?>
<!-- Uploaded to: SVG Repo, www.svgrepo.com, Generator: SVG Repo Mixer Tools -->
<svg  version="1.1" id="Layer_1" xmlns="http://www.w3.org/2000/svg" xmlns:xlink="http://www.w3.org/1999/xlink"
	 viewBox="0 0 512 512" xml:space="preserve">
<g>
	<g>
		<g>
			<path d="M448,117.333H213.333H64c-35.355,0-64,28.645-64,64v149.333c0,35.355,28.645,64,64,64h149.333H448
				c35.35,0,64-28.66,64-64V181.333C512,145.978,483.355,117.333,448,117.333z M64,352c-11.791,0-21.333-9.542-21.333-21.333
				V181.333C42.667,169.542,52.209,160,64,160h149.333c11.791,0,21.333,9.542,21.333,21.333v149.333
				c0,11.779-9.551,21.333-21.333,21.333H64z M469.333,330.667c0,11.779-9.551,21.333-21.333,21.333H273.691
				c0.167-0.474,0.317-0.956,0.473-1.434c0.111-0.339,0.23-0.674,0.335-1.016c0.279-0.905,0.538-1.818,0.778-2.74
				c0.08-0.307,0.147-0.62,0.222-0.929c0.159-0.65,0.313-1.301,0.452-1.959c0.08-0.38,0.15-0.762,0.223-1.144
				c0.115-0.601,0.225-1.204,0.323-1.81c0.064-0.396,0.123-0.793,0.18-1.191c0.088-0.614,0.165-1.231,0.235-1.851
				c0.043-0.385,0.088-0.77,0.124-1.157c0.064-0.677,0.112-1.359,0.155-2.042c0.021-0.332,0.048-0.661,0.064-0.994
				c0.048-1.016,0.077-2.038,0.077-3.066V181.333c0-1.029-0.03-2.051-0.078-3.068c-0.016-0.328-0.043-0.652-0.063-0.979
				c-0.043-0.69-0.092-1.379-0.157-2.063c-0.036-0.378-0.079-0.754-0.121-1.13c-0.071-0.634-0.151-1.265-0.24-1.894
				c-0.054-0.381-0.111-0.761-0.172-1.139c-0.103-0.638-0.218-1.271-0.339-1.902c-0.067-0.349-0.131-0.699-0.204-1.046
				c-0.154-0.732-0.324-1.457-0.503-2.18c-0.058-0.234-0.108-0.471-0.168-0.704c-0.246-0.951-0.514-1.893-0.802-2.825
				c-0.07-0.227-0.15-0.449-0.223-0.675c-0.186-0.578-0.368-1.157-0.57-1.727H448c11.791,0,21.333,9.542,21.333,21.333V330.667z"/>
			<path d="M106.667,202.667c-11.782,0-21.333,9.551-21.333,21.333v64c0,11.782,9.551,21.333,21.333,21.333
				c11.782,0,21.333-9.551,21.333-21.333v-64C128,212.218,118.449,202.667,106.667,202.667z"/>
			<path d="M170.667,202.667c-11.782,0-21.333,9.551-21.333,21.333v64c0,11.782,9.551,21.333,21.333,21.333
				c11.782,0,21.333-9.551,21.333-21.333v-64C192,212.218,182.449,202.667,170.667,202.667z"/>
		</g>
	</g>
</g>
</svg>