<?xml version="1.0" encoding="iso-8859-1"?>
<!-- Uploaded to: SVG Repo, www.svgrepo.com, Generator: SVG Repo Mixer Tools -->
<svg version="1.1" id="Layer_1" xmlns="http://www.w3.org/2000/svg" xmlns:xlink="http://www.w3.org/1999/xlink"
	 viewBox="0 0 512 512" xml:space="preserve">
<g>
	<g>
		<g>
			<path d="M448,117.333H298.667H64c-35.35,0-64,28.66-64,64v149.333c0,35.355,28.645,64,64,64h234.667H448
				c35.355,0,64-28.645,64-64V181.333C512,145.978,483.355,117.333,448,117.333z M64,352c-11.791,0-21.333-9.542-21.333-21.333
				V181.333C42.667,169.554,52.218,160,64,160h174.309c-0.167,0.474-0.317,0.956-0.473,1.434c-0.111,0.339-0.23,0.674-0.335,1.016
				c-0.279,0.905-0.538,1.818-0.778,2.74c-0.08,0.307-0.147,0.62-0.222,0.929c-0.159,0.65-0.313,1.301-0.452,1.959
				c-0.08,0.38-0.15,0.762-0.223,1.144c-0.115,0.601-0.225,1.204-0.323,1.81c-0.064,0.396-0.123,0.793-0.18,1.191
				c-0.088,0.614-0.165,1.231-0.235,1.851c-0.043,0.385-0.088,0.77-0.124,1.157c-0.064,0.677-0.112,1.359-0.155,2.042
				c-0.021,0.332-0.048,0.661-0.064,0.994c-0.048,1.016-0.077,2.038-0.077,3.066v149.333c0,1.029,0.03,2.051,0.078,3.068
				c0.016,0.328,0.043,0.652,0.063,0.979c0.043,0.69,0.092,1.379,0.157,2.063c0.036,0.378,0.079,0.754,0.121,1.13
				c0.071,0.634,0.151,1.265,0.24,1.894c0.054,0.381,0.111,0.761,0.172,1.14c0.103,0.637,0.218,1.27,0.339,1.901
				c0.067,0.349,0.131,0.7,0.204,1.047c0.154,0.732,0.324,1.457,0.503,2.18c0.058,0.234,0.108,0.471,0.168,0.704
				c0.246,0.951,0.514,1.893,0.802,2.825c0.07,0.227,0.15,0.449,0.223,0.675c0.186,0.578,0.368,1.157,0.57,1.727H64z
				 M469.333,330.667c0,11.791-9.542,21.333-21.333,21.333H298.667c-11.791,0-21.333-9.542-21.333-21.333V181.333
				c0-11.779,9.551-21.333,21.333-21.333H448c11.791,0,21.333,9.542,21.333,21.333V330.667z"/>
			<path d="M405.333,202.667C393.551,202.667,384,212.218,384,224v64c0,11.782,9.551,21.333,21.333,21.333
				c11.782,0,21.333-9.551,21.333-21.333v-64C426.667,212.218,417.115,202.667,405.333,202.667z"/>
			<path d="M341.333,202.667C329.551,202.667,320,212.218,320,224v64c0,11.782,9.551,21.333,21.333,21.333
				c11.782,0,21.333-9.551,21.333-21.333v-64C362.667,212.218,353.115,202.667,341.333,202.667z"/>
		</g>
	</g>
</g>
</svg>